<svg width="32" height="32" viewBox="0 0 32 32" fill="none" xmlns="http://www.w3.org/2000/svg">
  <!-- Medical cross background -->
  <rect x="12" y="4" width="8" height="24" rx="2" fill="#0891b2" />
  <rect x="4" y="12" width="24" height="8" rx="2" fill="#0891b2" />
  
  <!-- Skin layer representation -->
  <circle cx="16" cy="16" r="7" fill="#f8fafc" stroke="#0891b2" stroke-width="1.5" />
  <path d="M12 16C12 16 14 13 16 13C18 13 20 16 20 16C20 16 18 19 16 19C14 19 12 16 12 16Z" fill="#059669" stroke="#0891b2" stroke-width="0.5" />
  
  <!-- DNA helix suggestion -->
  <path d="M13 14.5C14 15 15 15.5 16 15C17 14.5 18 14 19 14.5" stroke="#0891b2" stroke-width="0.75" stroke-linecap="round" />
  <path d="M13 17.5C14 17 15 16.5 16 17C17 17.5 18 18 19 17.5" stroke="#0891b2" stroke-width="0.75" stroke-linecap="round" />
</svg>